<?xml version="1.0" encoding="utf-8"?>
<!-- Generator: Adobe Illustrator 18.0.0, SVG Export Plug-In . SVG Version: 6.00 Build 0)  -->
<!DOCTYPE svg PUBLIC "-//W3C//DTD SVG 1.1//EN" "http://www.w3.org/Graphics/SVG/1.1/DTD/svg11.dtd">
<svg version="1.1" id="Layer_1" xmlns="http://www.w3.org/2000/svg" xmlns:xlink="http://www.w3.org/1999/xlink" x="0px" y="0px"
	 viewBox="0 0 57.4 57" enable-background="new 0 0 57.4 57" xml:space="preserve">
<g>
	<path fill="#111B44" d="M52.7,13.2c15.1,27-12.4,54.6-39.5,39.5c-3.4-1.9-6.2-4.7-8.1-8.1C-10,17.5,17.5-10.1,44.6,5
		C48,7,50.8,9.8,52.7,13.2z"/>
	<g>
		<path fill="#FFFFFF" d="M40.6,35.8c-1.3-1.3-3.4-1.5-4.9-0.4l-3.4,2.1c0,0-2.2,0.9-8-4.9c-5.7-5.8-4.9-7.9-4.9-7.9v0l2.1-3.4
			c1.1-1.5,1-3.6-0.3-4.9l-3.2-3.2c-0.8-0.8-1.8-1.2-2.9-1.1c-1.1,0.1-2.1,0.6-2.8,1.5c0,0,0,0,0,0l-1.6,2.6
			c-0.3,0.4-6.4,9.1,7.2,22.7c0,0,0.1,0.1,0.1,0.1c7.1,7,12.9,8.8,16.8,8.8c3.6,0,5.7-1.5,5.9-1.6l2.7-1.7c0.9-0.7,1.4-1.7,1.5-2.8
			c0.1-1.1-0.3-2.2-1.1-2.9L40.6,35.8z"/>
		<path fill="#FFFFFF" d="M35.8,28.7c0.1,0.1,0.3,0.2,0.4,0.2c0.2,0,0.3-0.1,0.4-0.2c2.2-2.2,2.2-5.9,0-8.1c-2.2-2.2-5.9-2.2-8.1,0
			c-0.2,0.2-0.2,0.6,0,0.9c0.2,0.2,0.6,0.2,0.9,0c1.7-1.7,4.6-1.7,6.3,0c1.7,1.7,1.7,4.6,0,6.3C35.6,28,35.6,28.4,35.8,28.7z"/>
		<path fill="#FFFFFF" d="M38.6,31.2c0.2,0,0.3-0.1,0.4-0.2c3.5-3.5,3.5-9.2,0-12.7c-3.5-3.5-9.2-3.5-12.7,0c-0.2,0.2-0.2,0.6,0,0.9
			c0.2,0.2,0.6,0.2,0.9,0c1.5-1.5,3.4-2.3,5.5-2.3c2.1,0,4,0.8,5.5,2.3c3,3,3,7.9,0,10.9c-0.2,0.2-0.2,0.6,0,0.9
			C38.2,31.1,38.4,31.2,38.6,31.2z"/>
		<path fill="#FFFFFF" d="M24.9,16.8c2.1-2.1,4.9-3.2,7.8-3.2c2.9,0,5.7,1.1,7.8,3.2c4.3,4.3,4.3,11.3,0,15.6
			c-0.2,0.2-0.2,0.6,0,0.9c0.1,0.1,0.3,0.2,0.4,0.2c0.2,0,0.3-0.1,0.4-0.2c4.8-4.8,4.8-12.6,0-17.3c-2.3-2.3-5.4-3.6-8.7-3.6
			c-3.3,0-6.4,1.3-8.7,3.6c-0.2,0.2-0.2,0.6,0,0.9C24.2,17.1,24.6,17.1,24.9,16.8z"/>
	</g>
</g>
</svg>
